
    <svg
        width="1200"
        height="250"
        viewBox="0 0 1200 250"
        fill="none"
        xmlns="http://www.w3.org/2000/svg">
            <rect xmlns="http://www.w3.org/2000/svg" data-testid="card_bg" id="cardBg"
            x="0" y="0" rx="0" height="100%" stroke="#E4E2E2" fill-opacity="1"
            width="100%" fill="#ffffff" stroke-opacity="1" style="stroke:#0000; stroke-width:1;"/>

            <style>
                body {
                    font: 600 18px 'Segoe UI', Ubuntu, Sans-Serif;
                }
                .header {
                    font: 600 20px 'Segoe UI', Ubuntu, Sans-Serif;
                    text-align: center;
                    color: #434d58;
                    margin-top: 20px;
                }
                svg {
                    font: 600 18px 'Segoe UI', Ubuntu, Sans-Serif;
                    user-select: none;
                }
                
    .ct-label {
      fill: #434d58;
      color: #434d58;
      font-size: .75rem;
      line-height: 1;
    }

    .ct-grid-background,
    .ct-line {
      fill: none;
    }

    .ct-chart-bar .ct-label,
    .ct-chart-line .ct-label {
      display: block;
      display: -webkit-box;
      display: -moz-box;
      display: -ms-flexbox;
      display: -webkit-flex;
      display: flex;
    }

    .ct-label.ct-horizontal.ct-start {
      -webkit-box-align: flex-end;
      -webkit-align-items: flex-end;
      -ms-flex-align: flex-end;
      align-items: flex-end;
      -webkit-box-pack: flex-start;
      -webkit-justify-content: flex-start;
      -ms-flex-pack: flex-start;
      justify-content: flex-start;
      text-align: left;
      text-anchor: start;
    }

    .ct-label.ct-horizontal.ct-end {
      -webkit-box-align: flex-start;
      -webkit-align-items: flex-start;
      -ms-flex-align: flex-start;
      align-items: flex-start;
      -webkit-box-pack: flex-start;
      -webkit-justify-content: flex-start;
      -ms-flex-pack: flex-start;
      justify-content: flex-start;
      text-align: left;
      text-anchor: start;
    }

    .ct-label.ct-vertical.ct-start {
      -webkit-box-align: flex-end;
      -webkit-align-items: flex-end;
      -ms-flex-align: flex-end;
      align-items: flex-end;
      -webkit-box-pack: flex-end;
      -webkit-justify-content: flex-end;
      -ms-flex-pack: flex-end;
      justify-content: flex-end;
      text-align: right;
      text-anchor: end;
    }

    .ct-label.ct-vertical.ct-end {
      -webkit-box-align: flex-end;
      -webkit-align-items: flex-end;
      -ms-flex-align: flex-end;
      align-items: flex-end;
      -webkit-box-pack: flex-start;
      -webkit-justify-content: flex-start;
      -ms-flex-pack: flex-start;
      justify-content: flex-start;
      text-align: left;
      text-anchor: start;
    }

    .ct-grid {
      stroke: #434d58;
      stroke-width: 1px;
      stroke-opacity: 0.3;
      stroke-dasharray: 2px;
    }

    .ct-point {
      stroke-width: 10px;
      stroke-linecap: round;
      stroke: #B392F0;
      animation: blink 1s ease-in-out forwards;
    }

    .ct-line {
      stroke-width: 4px;
      stroke-dasharray: 5000;
      stroke-dashoffset: 5000;
      stroke: #36BCF7;
      animation: dash 5s ease-in-out forwards;
    }

    .ct-area {
      stroke: none;
      fill-opacity: 0.1;
    }

    .ct-series-a .ct-area,
    .ct-series-a .ct-slice-pie {
      fill: #9e4c98;
    }

    .ct-label .ct-horizontal {
      transform: rotate(-90deg)
    }
    
                
        @keyframes blink {
            from {
                opacity: 0;
                transform:translateX(-20px); 
            }
            to {
                opacity:1;
                transform: translateX(0);
            }
        }
    
                
        @keyframes dash {
            to {
                stroke-dashoffset: 0;
            }
        }
    
    
            </style>

            <foreignObject x="0" y="0" width="1200" height="50">
                <h1 xmlns="http://www.w3.org/1999/xhtml" class="header">
                    rroy233's Contribution Graph
                </h1>
            </foreignObject>
            <svg xmlns:ct="http://gionkunz.github.com/chartist-js/ct" width="1200" height="250" class="ct-chart-line"><g class="ct-grids"><line x1="90" x2="90" y1="80" y2="180" class="ct-grid ct-horizontal"></line><line x1="125.33333333333334" x2="125.33333333333334" y1="80" y2="180" class="ct-grid ct-horizontal"></line><line x1="160.66666666666669" x2="160.66666666666669" y1="80" y2="180" class="ct-grid ct-horizontal"></line><line x1="196" x2="196" y1="80" y2="180" class="ct-grid ct-horizontal"></line><line x1="231.33333333333334" x2="231.33333333333334" y1="80" y2="180" class="ct-grid ct-horizontal"></line><line x1="266.6666666666667" x2="266.6666666666667" y1="80" y2="180" class="ct-grid ct-horizontal"></line><line x1="302" x2="302" y1="80" y2="180" class="ct-grid ct-horizontal"></line><line x1="337.33333333333337" x2="337.33333333333337" y1="80" y2="180" class="ct-grid ct-horizontal"></line><line x1="372.6666666666667" x2="372.6666666666667" y1="80" y2="180" class="ct-grid ct-horizontal"></line><line x1="408" x2="408" y1="80" y2="180" class="ct-grid ct-horizontal"></line><line x1="443.33333333333337" x2="443.33333333333337" y1="80" y2="180" class="ct-grid ct-horizontal"></line><line x1="478.6666666666667" x2="478.6666666666667" y1="80" y2="180" class="ct-grid ct-horizontal"></line><line x1="514" x2="514" y1="80" y2="180" class="ct-grid ct-horizontal"></line><line x1="549.3333333333334" x2="549.3333333333334" y1="80" y2="180" class="ct-grid ct-horizontal"></line><line x1="584.6666666666667" x2="584.6666666666667" y1="80" y2="180" class="ct-grid ct-horizontal"></line><line x1="620" x2="620" y1="80" y2="180" class="ct-grid ct-horizontal"></line><line x1="655.3333333333334" x2="655.3333333333334" y1="80" y2="180" class="ct-grid ct-horizontal"></line><line x1="690.6666666666667" x2="690.6666666666667" y1="80" y2="180" class="ct-grid ct-horizontal"></line><line x1="726" x2="726" y1="80" y2="180" class="ct-grid ct-horizontal"></line><line x1="761.3333333333334" x2="761.3333333333334" y1="80" y2="180" class="ct-grid ct-horizontal"></line><line x1="796.6666666666667" x2="796.6666666666667" y1="80" y2="180" class="ct-grid ct-horizontal"></line><line x1="832" x2="832" y1="80" y2="180" class="ct-grid ct-horizontal"></line><line x1="867.3333333333334" x2="867.3333333333334" y1="80" y2="180" class="ct-grid ct-horizontal"></line><line x1="902.6666666666667" x2="902.6666666666667" y1="80" y2="180" class="ct-grid ct-horizontal"></line><line x1="938" x2="938" y1="80" y2="180" class="ct-grid ct-horizontal"></line><line x1="973.3333333333334" x2="973.3333333333334" y1="80" y2="180" class="ct-grid ct-horizontal"></line><line x1="1008.6666666666667" x2="1008.6666666666667" y1="80" y2="180" class="ct-grid ct-horizontal"></line><line x1="1044" x2="1044" y1="80" y2="180" class="ct-grid ct-horizontal"></line><line x1="1079.3333333333335" x2="1079.3333333333335" y1="80" y2="180" class="ct-grid ct-horizontal"></line><line x1="1114.6666666666667" x2="1114.6666666666667" y1="80" y2="180" class="ct-grid ct-horizontal"></line><line x1="1150" x2="1150" y1="80" y2="180" class="ct-grid ct-horizontal"></line><line y1="180" y2="180" x1="90" x2="1150" class="ct-grid ct-vertical"></line><line y1="146.66666666666666" y2="146.66666666666666" x1="90" x2="1150" class="ct-grid ct-vertical"></line><line y1="113.33333333333333" y2="113.33333333333333" x1="90" x2="1150" class="ct-grid ct-vertical"></line><line y1="80" y2="80" x1="90" x2="1150" class="ct-grid ct-vertical"></line></g><g><g class="ct-series ct-series-a"><path d="M90,106.667C101.778,106.667,113.556,106.667,125.333,106.667C137.111,106.667,148.889,137.778,160.667,146.667C172.444,155.556,184.222,166.667,196,166.667C207.778,166.667,219.556,163.704,231.333,160C243.111,156.296,254.889,126.667,266.667,126.667C278.444,126.667,290.222,173.333,302,173.333C313.778,173.333,325.556,80,337.333,80C349.111,80,360.889,153.333,372.667,153.333C384.444,153.333,396.222,100,408,100C419.778,100,431.556,180,443.333,180C455.111,180,466.889,164.646,478.667,153.333C490.444,142.02,502.222,106.667,514,106.667C525.778,106.667,537.556,169.293,549.333,173.333C561.111,177.374,572.889,180,584.667,180C596.444,180,608.222,173.333,620,173.333C631.778,173.333,643.556,180,655.333,180C667.111,180,678.889,180,690.667,180C702.444,180,714.222,180,726,180C737.778,180,749.556,180,761.333,180C773.111,180,784.889,173.333,796.667,173.333C808.444,173.333,820.222,173.333,832,173.333C843.778,173.333,855.556,133.333,867.333,133.333C879.111,133.333,890.889,136.19,902.667,140C914.444,143.81,926.222,180,938,180C949.778,180,961.556,180,973.333,180C985.111,180,996.889,166.667,1008.667,166.667C1020.444,166.667,1032.222,180,1044,180C1055.778,180,1067.556,180,1079.333,180C1091.111,180,1102.889,160,1114.667,160C1126.444,160,1138.222,160,1150,160" class="ct-line"></path><line x1="90" y1="106.66666666666667" x2="90.01" y2="106.66666666666667" class="ct-point" ct:value="11"></line><line x1="125.33333333333334" y1="106.66666666666667" x2="125.34333333333335" y2="106.66666666666667" class="ct-point" ct:value="11"></line><line x1="160.66666666666669" y1="146.66666666666666" x2="160.67666666666668" y2="146.66666666666666" class="ct-point" ct:value="5"></line><line x1="196" y1="166.66666666666666" x2="196.01" y2="166.66666666666666" class="ct-point" ct:value="2"></line><line x1="231.33333333333334" y1="160" x2="231.34333333333333" y2="160" class="ct-point" ct:value="3"></line><line x1="266.6666666666667" y1="126.66666666666666" x2="266.6766666666667" y2="126.66666666666666" class="ct-point" ct:value="8"></line><line x1="302" y1="173.33333333333334" x2="302.01" y2="173.33333333333334" class="ct-point" ct:value="1"></line><line x1="337.33333333333337" y1="80" x2="337.34333333333336" y2="80" class="ct-point" ct:value="15"></line><line x1="372.6666666666667" y1="153.33333333333334" x2="372.6766666666667" y2="153.33333333333334" class="ct-point" ct:value="4"></line><line x1="408" y1="100" x2="408.01" y2="100" class="ct-point" ct:value="12"></line><line x1="443.33333333333337" y1="180" x2="443.34333333333336" y2="180" class="ct-point" ct:value="0"></line><line x1="478.6666666666667" y1="153.33333333333334" x2="478.6766666666667" y2="153.33333333333334" class="ct-point" ct:value="4"></line><line x1="514" y1="106.66666666666667" x2="514.01" y2="106.66666666666667" class="ct-point" ct:value="11"></line><line x1="549.3333333333334" y1="173.33333333333334" x2="549.3433333333334" y2="173.33333333333334" class="ct-point" ct:value="1"></line><line x1="584.6666666666667" y1="180" x2="584.6766666666667" y2="180" class="ct-point" ct:value="0"></line><line x1="620" y1="173.33333333333334" x2="620.01" y2="173.33333333333334" class="ct-point" ct:value="1"></line><line x1="655.3333333333334" y1="180" x2="655.3433333333334" y2="180" class="ct-point" ct:value="0"></line><line x1="690.6666666666667" y1="180" x2="690.6766666666667" y2="180" class="ct-point" ct:value="0"></line><line x1="726" y1="180" x2="726.01" y2="180" class="ct-point" ct:value="0"></line><line x1="761.3333333333334" y1="180" x2="761.3433333333334" y2="180" class="ct-point" ct:value="0"></line><line x1="796.6666666666667" y1="173.33333333333334" x2="796.6766666666667" y2="173.33333333333334" class="ct-point" ct:value="1"></line><line x1="832" y1="173.33333333333334" x2="832.01" y2="173.33333333333334" class="ct-point" ct:value="1"></line><line x1="867.3333333333334" y1="133.33333333333334" x2="867.3433333333334" y2="133.33333333333334" class="ct-point" ct:value="7"></line><line x1="902.6666666666667" y1="140" x2="902.6766666666667" y2="140" class="ct-point" ct:value="6"></line><line x1="938" y1="180" x2="938.01" y2="180" class="ct-point" ct:value="0"></line><line x1="973.3333333333334" y1="180" x2="973.3433333333334" y2="180" class="ct-point" ct:value="0"></line><line x1="1008.6666666666667" y1="166.66666666666666" x2="1008.6766666666667" y2="166.66666666666666" class="ct-point" ct:value="2"></line><line x1="1044" y1="180" x2="1044.01" y2="180" class="ct-point" ct:value="0"></line><line x1="1079.3333333333335" y1="180" x2="1079.3433333333335" y2="180" class="ct-point" ct:value="0"></line><line x1="1114.6666666666667" y1="160" x2="1114.6766666666667" y2="160" class="ct-point" ct:value="3"></line><line x1="1150" y1="160" x2="1150.01" y2="160" class="ct-point" ct:value="3"></line></g></g><g class="ct-labels"><text x="85.5" y="200" width="35.333333333333336" height="40" class="ct-label ct-horizontal ct-end">29</text><text x="120.83333333333334" y="200" width="35.333333333333336" height="40" class="ct-label ct-horizontal ct-end">30</text><text x="156.16666666666669" y="200" width="35.33333333333333" height="40" class="ct-label ct-horizontal ct-end">31</text><text x="191.5" y="200" width="35.33333333333334" height="40" class="ct-label ct-horizontal ct-end">1</text><text x="226.83333333333334" y="200" width="35.33333333333334" height="40" class="ct-label ct-horizontal ct-end">2</text><text x="262.1666666666667" y="200" width="35.333333333333314" height="40" class="ct-label ct-horizontal ct-end">3</text><text x="297.5" y="200" width="35.33333333333334" height="40" class="ct-label ct-horizontal ct-end">4</text><text x="332.83333333333337" y="200" width="35.33333333333334" height="40" class="ct-label ct-horizontal ct-end">5</text><text x="368.1666666666667" y="200" width="35.333333333333314" height="40" class="ct-label ct-horizontal ct-end">6</text><text x="403.5" y="200" width="35.33333333333337" height="40" class="ct-label ct-horizontal ct-end">7</text><text x="438.83333333333337" y="200" width="35.333333333333314" height="40" class="ct-label ct-horizontal ct-end">8</text><text x="474.1666666666667" y="200" width="35.333333333333314" height="40" class="ct-label ct-horizontal ct-end">9</text><text x="509.5" y="200" width="35.33333333333337" height="40" class="ct-label ct-horizontal ct-end">10</text><text x="544.8333333333334" y="200" width="35.333333333333314" height="40" class="ct-label ct-horizontal ct-end">11</text><text x="580.1666666666667" y="200" width="35.333333333333314" height="40" class="ct-label ct-horizontal ct-end">12</text><text x="615.5" y="200" width="35.33333333333337" height="40" class="ct-label ct-horizontal ct-end">13</text><text x="650.8333333333334" y="200" width="35.33333333333337" height="40" class="ct-label ct-horizontal ct-end">14</text><text x="686.1666666666667" y="200" width="35.33333333333326" height="40" class="ct-label ct-horizontal ct-end">15</text><text x="721.5" y="200" width="35.33333333333337" height="40" class="ct-label ct-horizontal ct-end">16</text><text x="756.8333333333334" y="200" width="35.33333333333337" height="40" class="ct-label ct-horizontal ct-end">17</text><text x="792.1666666666667" y="200" width="35.33333333333326" height="40" class="ct-label ct-horizontal ct-end">18</text><text x="827.5" y="200" width="35.33333333333337" height="40" class="ct-label ct-horizontal ct-end">19</text><text x="862.8333333333334" y="200" width="35.33333333333337" height="40" class="ct-label ct-horizontal ct-end">20</text><text x="898.1666666666667" y="200" width="35.33333333333326" height="40" class="ct-label ct-horizontal ct-end">21</text><text x="933.5" y="200" width="35.33333333333337" height="40" class="ct-label ct-horizontal ct-end">22</text><text x="968.8333333333334" y="200" width="35.33333333333337" height="40" class="ct-label ct-horizontal ct-end">23</text><text x="1004.1666666666667" y="200" width="35.33333333333337" height="40" class="ct-label ct-horizontal ct-end">24</text><text x="1039.5" y="200" width="35.33333333333326" height="40" class="ct-label ct-horizontal ct-end">25</text><text x="1074.8333333333335" y="200" width="35.33333333333337" height="40" class="ct-label ct-horizontal ct-end">26</text><text x="1110.1666666666667" y="200" width="35.33333333333326" height="40" class="ct-label ct-horizontal ct-end">27</text><text x="1145.5" y="200" width="30" height="40" class="ct-label ct-horizontal ct-end">28</text><text y="184.5" x="80" height="33.333333333333336" width="60" class="ct-label ct-vertical ct-start">0</text><text y="151.16666666666666" x="80" height="33.333333333333336" width="60" class="ct-label ct-vertical ct-start">5</text><text y="117.83333333333333" x="80" height="33.33333333333333" width="60" class="ct-label ct-vertical ct-start">10</text><text y="84.5" x="80" height="30" width="60" class="ct-label ct-vertical ct-start">15</text></g><text class="ct-axis-title ct-label" x="620" y="230" dominant-baseline="text-after-edge" text-anchor="middle">Days</text><text class="ct-axis-title ct-label" x="20" y="130" transform="rotate(-90, 20, 130)" dominant-baseline="hanging" text-anchor="middle">Contributions</text></svg>
    </svg>
